<svg id="Layer_1" data-name="Layer 1" xmlns="http://www.w3.org/2000/svg" viewBox="0 0 1265.68 1276.81"><defs><style>.cls-1{fill:#ff4200;}</style></defs><path class="cls-1" d="M367.16,361.6l284.4,45.22,272.06,43.26q-.58,64.43-1.15,128.84-1,60.57-1.94,121.16l-96-30.49-58.15-18.46q9.2,92.16,18.4,184.32l223.81,87.91q15.18-227.48,30.35-454.95l593.95,94.45q-53.33,163.88-106.66,327.75l-293.59-91.47q-17,99.45-33.95,198.89l258.69,101.62q-42.24,129.21-84.49,258.42l-216.73-110.9-66.79,391.23L966.53,1553q13-194.79,26-389.57l-184.46-94.39q20.06,200.84,40.1,401.68l-109.62-76.21Q648.66,989.9,558.8,585.25L410.18,537.74Z" transform="translate(-367.16 -361.6)"/></svg>