<svg id="Layer_1" data-name="Layer 1" xmlns="http://www.w3.org/2000/svg" xmlns:xlink="http://www.w3.org/1999/xlink" viewBox="0 0 2154.49 1710.47"><defs><style>.cls-1{fill:#707070;}.cls-2{opacity:0.49;}.cls-3{fill:#fff;}.cls-4{fill:#353535;}.cls-5{clip-path:url(#clip-path);}.cls-6{fill:#47190d;}.cls-7{fill:#1d1d1b;}</style><clipPath id="clip-path" transform="translate(-401.29 -51.88)"><path class="cls-1" d="M1242.75,742.49q-2.89,43.47-5.8,87L947.81,715.87l71.16-51Z"/></clipPath></defs><g class="cls-2"><path d="M1473.94,957.12,1758.06,1034l246.93,66.8-52.44,28.85-57.48,30.92-90.85-29.23-55.83-18-96.62,56.77,228.37,80.53,223-123.34,452.69,122.47-125.13,83.1-251.64-81-109.52,65.51L2320.6,1406l-194.89,129.44-245.28-104.9L1344,1751.36l-162.69-114.11L1696.91,1352l-205.3-87.8-458.26,269.23-129.92-91.13,640.45-394.77-151.46-48.88Z" transform="translate(-401.29 -51.88)"/></g><path class="cls-3" d="M408.35,103.71l367.42,58.42L1127.23,218q-.74,83.22-1.48,166.44-1.24,78.27-2.51,156.53L999.16,501.6,924,477.75q11.9,119.06,23.78,238.12L1237,829.45l39.21-587.75,767.32,122L1904.44,789l-378-120q-21.93,128.47-43.87,256.95l334.21,131.28-109.15,333.85q-140-71.62-280-143.27l-86.28,505.44-158.64-110.28q16.8-251.65,33.58-503.3L977.94,1017.71l51.81,518.92-141.62-98.45L655.93,392.64l-192-61.37Z" transform="translate(-401.29 -51.88)"/><path class="cls-4" d="M1123.24,541l81.15-59.78q10.45-169.11,20.9-338.23l-98.06,75Z" transform="translate(-401.29 -51.88)"/><path class="cls-1" d="M408.35,103.71l65.42-47.56L1225.29,143l-98.06,75Z" transform="translate(-401.29 -51.88)"/><path class="cls-4" d="M1013.49,506.15q2.75,79.38,5.48,158.76l-71.16,51L924,477.75Z" transform="translate(-401.29 -51.88)"/><path class="cls-1" d="M1242.75,742.49q-2.89,43.47-5.8,87L947.81,715.87l71.16-51Z" transform="translate(-401.29 -51.88)"/><g class="cls-5"><path class="cls-4" d="M1166,715.87l-70.69,57.93L947.81,715.87l68.45-53.09Z" transform="translate(-401.29 -51.88)"/></g><path class="cls-4" d="M1905.69,787.14,1985.27,729l155.24-442.85-97,77.58Z" transform="translate(-401.29 -51.88)"/><path class="cls-1" d="M1276.16,241.7l767.32,122,97-77.58L1355,179.64Z" transform="translate(-401.29 -51.88)"/><path class="cls-4" d="M1482.53,925.92,1573.17,857q17.73-81,35.47-161.95L1526.4,669Z" transform="translate(-401.29 -51.88)"/><path class="cls-4" d="M1939,983.85l-122.26,73.35L1482.53,925.92,1573.17,857Z" transform="translate(-401.29 -51.88)"/><path class="cls-4" d="M1707.59,1391.05l96.43-51.74q67.49-177.74,135-355.46l-122.26,73.35Z" transform="translate(-401.29 -51.88)"/><path class="cls-4" d="M1029.75,1536.63l18.51-23.72-16.14-467.48-54.18-27.72Z" transform="translate(-401.29 -51.88)"/><path class="cls-4" d="M1341.31,1753.22l40.36-21.82,99.87-456-54-27.61Z" transform="translate(-401.29 -51.88)"/><path class="cls-6" d="M991.86,1514.93" transform="translate(-401.29 -51.88)"/><path class="cls-7" d="M1345.14,1762.35l-168-116.77,33.54-502.8L984.2,1026.88l52,520.7-152.8-106.22-.45-2L651.4,396.77,459.47,335.43,401.29,97.2l731.3,116.29-1.52,171-2.63,163.71-198.31-63,22.65,226.85,279.35,109.73,39.11-586.31,779.23,123.91-142.62,436.2L1530.61,675.89,1488.5,922.55l334.85,131.54-112.64,344.53-279.1-142.81Zm-157-122.06,149.3,103.79,86.09-504.33,280.9,143.73,105.66-323.16-333.56-131,45.61-267.23L1901,782.32,2036.49,368,1281.08,247.86l-39.31,589.19L942.84,719.63l-24.9-249.39L1118,533.76l2.4-149.38,1.44-161.83L415.41,110.21l53,216.9L660.45,388.5l.66,3L892.87,1435l130.45,90.68-51.63-517.15,250.1,128Z" transform="translate(-401.29 -51.88)"/><polygon class="cls-7" points="1308.73 1345.1 1305.78 1338.65 1399.43 1284.53 1532.37 934.46 1167.08 807.83 1204.3 637.91 1504.43 733.18 1580.52 674.55 1733.67 237.64 954.88 132.07 879.84 188.77 845.21 696.25 613.67 615.99 607.89 448.58 726.05 486.09 799.12 427.15 819.66 94.74 73.6 8.54 7.29 52.74 1.59 46.8 71.36 0 72.95 0.18 828.35 87.46 807.09 431.5 726.09 494.73 616.51 459.95 621.7 610.07 837.72 684.96 871.1 184.69 952.53 123.45 954.26 123.68 1744.77 230.85 1587.44 679.65 1505.28 742.09 1210.4 648.48 1176.68 802.46 1543.06 929.47 1406.03 1290.32 1308.73 1345.1"/><path class="cls-7" d="M1034.67,1545.1l-61.56-534.49,63,32.26,16.28,471.39Zm-51.89-520.3,50.51,505.85,10.81-19.09-16-463.57Z" transform="translate(-401.29 -51.88)"/><rect class="cls-7" x="938.38" y="684.54" width="89.88" height="7.58" transform="translate(-616.82 695.24) rotate(-37.8)"/><rect class="cls-7" x="1470.93" y="887.68" width="113.84" height="7.58" transform="translate(-629.24 1054.53) rotate(-37.24)"/><polygon class="cls-7" points="942.68 1708.32 940.02 1701.33 976.76 1676.79 1076.24 1222.62 1084.27 1224.39 983.99 1682.23 942.68 1708.32"/><rect class="cls-7" x="1806.58" y="1016.74" width="142.57" height="7.58" transform="translate(-658.74 1059.48) rotate(-30.96)"/><rect class="cls-7" x="2029.88" y="321.13" width="124.23" height="7.58" transform="translate(-146.08 1325.75) rotate(-38.65)"/><rect class="cls-7" x="1114.53" y="176.71" width="123.47" height="7.58" transform="translate(-268.89 700.04) rotate(-37.42)"/></svg>