<svg id="Layer_1" data-name="Layer 1" xmlns="http://www.w3.org/2000/svg" viewBox="0 0 804.66 106.61"><defs><style>.cls-1{fill:#161111;}</style></defs><path class="cls-1" d="M27.84,72.59V56.71a1.25,1.25,0,0,1,1.26-1.26H72.63a1.25,1.25,0,0,1,1.26,1.26V72.59a1.26,1.26,0,0,1-1.26,1.26H29.1A1.26,1.26,0,0,1,27.84,72.59Zm35,41.63q-12.6,0-19.63-6.08t-7-18.68V39.65a1.26,1.26,0,0,1,1.26-1.26H60.14a1.25,1.25,0,0,1,1.26,1.26V89.24a6,6,0,0,0,1.51,4.35,5,5,0,0,0,3.73,1.56,10.12,10.12,0,0,0,4.45-1,1.25,1.25,0,0,1,1.73.72L78,110a1.25,1.25,0,0,1-.6,1.53,23.51,23.51,0,0,1-6,2A45.17,45.17,0,0,1,62.85,114.22Z" transform="translate(-27.84 -29.24)"/><path class="cls-1" d="M121.51,51a28.1,28.1,0,0,1,12.71,2.84,20.61,20.61,0,0,1,9,8.87q3.28,6,3.29,15.61v33.53a1.25,1.25,0,0,1-1.26,1.26H122.55a1.25,1.25,0,0,1-1.26-1.26V82.66q0-5.68-2-8.09a6.77,6.77,0,0,0-5.46-2.39,9.85,9.85,0,0,0-4.74,1.17,8.18,8.18,0,0,0-3.46,3.84,17,17,0,0,0-1.28,7.25v27.4a1.26,1.26,0,0,1-1.27,1.26H80.4a1.26,1.26,0,0,1-1.27-1.26V31.62a1.26,1.26,0,0,1,1.27-1.26h22.67a1.26,1.26,0,0,1,1.27,1.26V67.21a1.26,1.26,0,0,1-2.08,1L99.1,65.48a1.26,1.26,0,0,1-.29-1.58A24.11,24.11,0,0,1,108,54.44,27,27,0,0,1,121.51,51Z" transform="translate(-27.84 -29.24)"/><path class="cls-1" d="M186.64,114.22a43.22,43.22,0,0,1-19.46-4.13A31.31,31.31,0,0,1,154.3,98.77a29.57,29.57,0,0,1-4.58-16.22,30,30,0,0,1,4.52-16.4A31.1,31.1,0,0,1,166.62,55a38.36,38.36,0,0,1,17.67-4A38.92,38.92,0,0,1,201,54.56a29.21,29.21,0,0,1,12.26,10.59q4.64,7,4.63,17.4c0,.89,0,1.87-.11,3,0,.63-.09,1.23-.13,1.8a1.26,1.26,0,0,1-1.26,1.16H171.84a1.26,1.26,0,0,1-1.26-1.27V77.56a1.26,1.26,0,0,1,1.26-1.26h24.69a1.26,1.26,0,0,1,.41,2.46l-.69.24a1.27,1.27,0,0,1-1.66-1.08,11.91,11.91,0,0,0-1.21-4.46,9.73,9.73,0,0,0-3.51-3.91,10,10,0,0,0-5.35-1.39,10.27,10.27,0,0,0-5.41,1.39,9.18,9.18,0,0,0-3.51,3.91,13.7,13.7,0,0,0-1.23,6.08v3.79A13.51,13.51,0,0,0,175.93,90a9.92,9.92,0,0,0,4.46,4.18,16.08,16.08,0,0,0,7,1.4,18.73,18.73,0,0,0,7-1.12,25.13,25.13,0,0,0,4.86-2.72,1.27,1.27,0,0,1,1.63.14l11.53,11.62a1.26,1.26,0,0,1,0,1.78,29.11,29.11,0,0,1-10.12,6.41A43.69,43.69,0,0,1,186.64,114.22Z" transform="translate(-27.84 -29.24)"/><path class="cls-1" d="M262.58,51a28.1,28.1,0,0,1,12.71,2.84,20.66,20.66,0,0,1,9,8.87q3.28,6,3.29,15.61v33.53a1.26,1.26,0,0,1-1.26,1.26H263.62a1.25,1.25,0,0,1-1.26-1.26V82.66q0-5.68-2-8.09a6.77,6.77,0,0,0-5.46-2.39,9.89,9.89,0,0,0-4.75,1.17,8.21,8.21,0,0,0-3.45,3.84,17,17,0,0,0-1.28,7.25v27.4a1.26,1.26,0,0,1-1.27,1.26H221.46a1.26,1.26,0,0,1-1.26-1.26V31.62a1.26,1.26,0,0,1,1.26-1.26h22.68a1.26,1.26,0,0,1,1.27,1.26V67.21a1.26,1.26,0,0,1-2.08,1l-3.16-2.69a1.27,1.27,0,0,1-.3-1.58A24.2,24.2,0,0,1,249,54.44,27,27,0,0,1,262.58,51Z" transform="translate(-27.84 -29.24)"/><path class="cls-1" d="M318.34,114.22a28.69,28.69,0,0,1-13.11-3A21.09,21.09,0,0,1,296,102q-3.34-6.3-3.34-16.23V53.37A1.26,1.26,0,0,1,294,52.1h22.68a1.26,1.26,0,0,1,1.26,1.27V81.43c0,4.31.71,7.33,2.12,9a7.1,7.1,0,0,0,5.8,2.57A8,8,0,0,0,330,91.86a8.35,8.35,0,0,0,3.18-3.9,17.76,17.76,0,0,0,1.23-7.2V53.37a1.26,1.26,0,0,1,1.26-1.27h22.68a1.27,1.27,0,0,1,1.26,1.27v58.47a1.26,1.26,0,0,1-1.26,1.26H336.89a1.26,1.26,0,0,1-1.27-1.26V98.53a1.26,1.26,0,0,1,2.16-.89l2,2a1.28,1.28,0,0,1,.25,1.46,22,22,0,0,1-8.81,9.72A25.65,25.65,0,0,1,318.34,114.22Z" transform="translate(-27.84 -29.24)"/><path class="cls-1" d="M398.85,114.22a43.28,43.28,0,0,1-19.46-4.13,31.43,31.43,0,0,1-12.88-11.32,29.56,29.56,0,0,1-4.57-16.22,30,30,0,0,1,4.52-16.4A31.1,31.1,0,0,1,378.84,55a38.36,38.36,0,0,1,17.67-4,38.87,38.87,0,0,1,16.67,3.57,29.18,29.18,0,0,1,12.27,10.59q4.64,7,4.63,17.4c0,.89,0,1.87-.11,3-.05.63-.09,1.23-.13,1.8a1.26,1.26,0,0,1-1.26,1.16H384.06a1.26,1.26,0,0,1-1.26-1.27V77.56a1.26,1.26,0,0,1,1.26-1.26h24.69a1.26,1.26,0,0,1,.41,2.46l-.69.24a1.27,1.27,0,0,1-1.66-1.08,12.1,12.1,0,0,0-1.21-4.46,9.8,9.8,0,0,0-3.51-3.91,10,10,0,0,0-5.36-1.39,10.23,10.23,0,0,0-5.4,1.39,9.27,9.27,0,0,0-3.52,3.91,13.84,13.84,0,0,0-1.22,6.08v3.79A13.51,13.51,0,0,0,388.15,90a9.92,9.92,0,0,0,4.46,4.18,16.06,16.06,0,0,0,7,1.4,18.65,18.65,0,0,0,7-1.12,24.9,24.9,0,0,0,4.87-2.72,1.27,1.27,0,0,1,1.63.14l11.53,11.62a1.27,1.27,0,0,1,0,1.78,29.11,29.11,0,0,1-10.12,6.41A43.75,43.75,0,0,1,398.85,114.22Z" transform="translate(-27.84 -29.24)"/><path class="cls-1" d="M426.85,72.59V56.71a1.25,1.25,0,0,1,1.26-1.26h43.53a1.25,1.25,0,0,1,1.26,1.26V72.59a1.26,1.26,0,0,1-1.26,1.26H428.11A1.26,1.26,0,0,1,426.85,72.59Zm9.62,40.51a1.26,1.26,0,0,1-1.26-1.26V55.11q0-11.82,7.08-18.84t20.13-7a45.49,45.49,0,0,1,8.09.73,23.28,23.28,0,0,1,5.88,1.78,1.26,1.26,0,0,1,.62,1.54l-5.23,15.2a1.28,1.28,0,0,1-1.68.76c-.46-.17-.94-.34-1.44-.49a10.06,10.06,0,0,0-3-.45A5.92,5.92,0,0,0,461.3,50c-1.11,1.12-1.67,2.9-1.67,5.36v2.85a.28.28,0,0,0,0,.09l.77,10.28v43.28a1.25,1.25,0,0,1-1.26,1.26Z" transform="translate(-27.84 -29.24)"/><path class="cls-1" d="M492.86,114.22a27.29,27.29,0,0,1-12.49-2.57,17.78,17.78,0,0,1-10.14-16.39,16.55,16.55,0,0,1,3-10q3-4.12,9.2-6.24a49.09,49.09,0,0,1,15.67-2.12h11.45a1.26,1.26,0,0,1,1.26,1.26v9.63A1.27,1.27,0,0,1,509.56,89h-7.44c-2.68,0-4.63.42-5.86,1.28a4.18,4.18,0,0,0-1.78,3,5,5,0,0,0,1.37,4.21,6.35,6.35,0,0,0,4.6,1.57,8.6,8.6,0,0,0,4.74-1.39,7,7,0,0,0,2.05-2,1.26,1.26,0,0,1,2.22.17l2,4.55a1.36,1.36,0,0,1,.08.82,15.83,15.83,0,0,1-6,9.72Q500.78,114.21,492.86,114.22Zm17.29-2.38v-9.2A1.3,1.3,0,0,0,510,102l-1.41-2.29a1.28,1.28,0,0,1-.18-.66V78.87a8.49,8.49,0,0,0-2.74-6.81q-2.73-2.34-8.86-2.34A28.68,28.68,0,0,0,488.4,71a24.36,24.36,0,0,0-6.1,2.72,1.24,1.24,0,0,1-1.78-.53L473.63,59a1.26,1.26,0,0,1,.49-1.64A43.6,43.6,0,0,1,486,52.77,62.73,62.73,0,0,1,500.56,51q15.72,0,24.36,7t8.65,22.31v31.52a1.26,1.26,0,0,1-1.26,1.26h-20.9A1.25,1.25,0,0,1,510.15,111.84Z" transform="translate(-27.84 -29.24)"/><path class="cls-1" d="M572.82,114.22a41.48,41.48,0,0,1-18.62-4A31.18,31.18,0,0,1,541.43,99a29.71,29.71,0,0,1-4.63-16.45,29.45,29.45,0,0,1,4.63-16.4A31.43,31.43,0,0,1,554.2,55a41.61,41.61,0,0,1,18.62-4q11.16,0,19.07,4.79A25,25,0,0,1,602.41,68a1.29,1.29,0,0,1-.63,1.61l-17.33,8.51a1.28,1.28,0,0,1-1.7-.58,13.36,13.36,0,0,0-4.07-5,10.29,10.29,0,0,0-6-1.89A10.5,10.5,0,0,0,567.52,72a9.6,9.6,0,0,0-3.79,4,14.06,14.06,0,0,0-1.39,6.64,14.41,14.41,0,0,0,1.39,6.69,9.5,9.5,0,0,0,3.79,4,10.51,10.51,0,0,0,5.19,1.34,10.29,10.29,0,0,0,6-1.89,13.36,13.36,0,0,0,4.07-5,1.29,1.29,0,0,1,1.7-.59l17.33,8.52a1.27,1.27,0,0,1,.63,1.6,24.9,24.9,0,0,1-10.52,12.18Q584,114.22,572.82,114.22Z" transform="translate(-27.84 -29.24)"/><path class="cls-1" d="M598.58,72.59V56.71a1.26,1.26,0,0,1,1.26-1.26h43.54a1.26,1.26,0,0,1,1.26,1.26V72.59a1.27,1.27,0,0,1-1.26,1.26H599.84A1.27,1.27,0,0,1,598.58,72.59Zm35,41.63q-12.6,0-19.63-6.08t-7-18.68V39.65a1.26,1.26,0,0,1,1.27-1.26h22.67a1.26,1.26,0,0,1,1.27,1.26V89.24a6,6,0,0,0,1.5,4.35,5,5,0,0,0,3.74,1.56,10.18,10.18,0,0,0,4.45-1,1.25,1.25,0,0,1,1.73.72l5.18,15a1.26,1.26,0,0,1-.6,1.53,23.51,23.51,0,0,1-6,2A45.33,45.33,0,0,1,633.6,114.22Z" transform="translate(-27.84 -29.24)"/><path class="cls-1" d="M680.43,114.22a39.82,39.82,0,0,1-18.34-4.07,31.6,31.6,0,0,1-12.55-11.21A29.7,29.7,0,0,1,645,82.55a29.74,29.74,0,0,1,4.57-16.4A31.32,31.32,0,0,1,662.09,55a44.08,44.08,0,0,1,36.74,0,30.8,30.8,0,0,1,12.55,11.15,30,30,0,0,1,4.52,16.4,30,30,0,0,1-4.52,16.39,31.07,31.07,0,0,1-12.55,11.21A40.16,40.16,0,0,1,680.43,114.22Zm0-19.63a9.6,9.6,0,0,0,5-1.34A9.36,9.36,0,0,0,689,89.18a15,15,0,0,0,1.34-6.63A14.58,14.58,0,0,0,689,75.91a9.54,9.54,0,0,0-17.17,0,14.58,14.58,0,0,0-1.34,6.64,15,15,0,0,0,1.34,6.63,9.36,9.36,0,0,0,3.57,4.07A9.56,9.56,0,0,0,680.43,94.59Z" transform="translate(-27.84 -29.24)"/><path class="cls-1" d="M718.24,111.84V53.37a1.26,1.26,0,0,1,1.26-1.27H741a1.26,1.26,0,0,1,1.26,1.27V66.7a1.26,1.26,0,0,1-2.27.75l-1.19-1.6a1.29,1.29,0,0,1-.16-1.27,20.39,20.39,0,0,1,8.64-10A28.1,28.1,0,0,1,760.66,51,1.27,1.27,0,0,1,762,52.28V71.86a1.26,1.26,0,0,1-1.41,1.25L759,73c-.86-.08-1.73-.12-2.62-.12a14.25,14.25,0,0,0-9.31,3q-3.63,3-3.63,10.2v25.84a1.25,1.25,0,0,1-1.26,1.26H719.5A1.25,1.25,0,0,1,718.24,111.84Z" transform="translate(-27.84 -29.24)"/><path class="cls-1" d="M783.78,114.22,758.67,53.85a1.26,1.26,0,0,1,1.16-1.75h23.11a1.26,1.26,0,0,1,1.18.81l17.67,45.9a1.25,1.25,0,0,1-.32,1.38l-15.66,14.47A1.27,1.27,0,0,1,783.78,114.22Zm-5.21,21.63a36.52,36.52,0,0,1-10.2-1.5,26,26,0,0,1-7.46-3.34,1.23,1.23,0,0,1-.39-1.57l7.26-15a1.26,1.26,0,0,1,1.78-.53,17.08,17.08,0,0,0,3.15,1.55,13.15,13.15,0,0,0,4.63.9,8.18,8.18,0,0,0,5.13-1.4,9.7,9.7,0,0,0,2.9-4.18l2.51-6.32a1.51,1.51,0,0,1,.15-.28l1.6-2.19a1.51,1.51,0,0,0,.15-.28L808.92,52.9a1.27,1.27,0,0,1,1.18-.8h21.13a1.26,1.26,0,0,1,1.17,1.74L808,114.33a41.19,41.19,0,0,1-7.75,13,24.76,24.76,0,0,1-9.81,6.58A35.84,35.84,0,0,1,778.57,135.85Z" transform="translate(-27.84 -29.24)"/></svg>