<svg id="Layer_1" data-name="Layer 1" xmlns="http://www.w3.org/2000/svg" viewBox="0 0 1004.41 1013.25"><defs><style>.cls-1{fill:#ff4200;}</style></defs><path class="cls-1" d="M37.79,33.38l225.7,35.89L479.38,103.6q-.45,51.12-.91,102.24-.77,48.07-1.54,96.15l-76.22-24.2-46.15-14.65,14.61,146.27,177.61,69.77,24.09-361,471.34,75q-42.33,130-84.64,260.1l-233-72.59q-13.47,78.93-27,157.84l205.3,80.64-67,205.08-172-88-53,310.47-97.44-67.74q10.3-154.57,20.62-309.16l-146.38-74.9Q403.6,754.21,419.5,913.58l-87-60.47Q261.18,532,189.87,210.86L71.93,173.16Z" transform="translate(-37.79 -33.38)"/></svg>