<svg id="Layer_1" data-name="Layer 1" xmlns="http://www.w3.org/2000/svg" viewBox="0 0 300.55 72.61"><defs><style>.cls-1{fill:#47190d;}.cls-2{fill:#1d1d1b;}.cls-3{fill:#161111;}.cls-4{fill:#ff4200;}</style></defs><path class="cls-1" d="M-82.29,530.39" transform="translate(-5.62 -10.13)"/><path class="cls-2" d="M193,718.1" transform="translate(-5.62 -10.13)"/><path class="cls-3" d="M44.8,82.74a44.29,44.29,0,0,1-15.62-2.68,36.7,36.7,0,0,1-12.45-7.58A35,35,0,0,1,8.55,60.92,35.4,35.4,0,0,1,5.62,46.43a34.76,34.76,0,0,1,11.11-26,36.72,36.72,0,0,1,12.45-7.59A44.29,44.29,0,0,1,44.8,10.13a44.17,44.17,0,0,1,15.67,2.68,36.79,36.79,0,0,1,12.4,7.59,35.1,35.1,0,0,1,8.19,11.5A35.48,35.48,0,0,1,84,46.43a35.56,35.56,0,0,1-2.92,14.49,35,35,0,0,1-8.19,11.56,36.76,36.76,0,0,1-12.4,7.58A44.17,44.17,0,0,1,44.8,82.74Zm0-18.95a15.43,15.43,0,0,0,6.1-1.19,14.51,14.51,0,0,0,5-3.42,15.72,15.72,0,0,0,3.33-5.45,21,21,0,0,0,1.19-7.3,21.11,21.11,0,0,0-1.19-7.29,15.82,15.82,0,0,0-3.33-5.45,14.51,14.51,0,0,0-5-3.42,16.23,16.23,0,0,0-12.2,0,14.61,14.61,0,0,0-5,3.42,15.65,15.65,0,0,0-3.32,5.45,21.11,21.11,0,0,0-1.19,7.29,21,21,0,0,0,1.19,7.3,15.56,15.56,0,0,0,3.32,5.45,14.61,14.61,0,0,0,5,3.42A15.47,15.47,0,0,0,44.8,63.79Z" transform="translate(-5.62 -10.13)"/><path class="cls-3" d="M119.69,82.74a44.12,44.12,0,0,1-15.43-2.63A36.31,36.31,0,0,1,92,72.62a34,34,0,0,1-8.08-11.5A36.57,36.57,0,0,1,81,46.43a36.59,36.59,0,0,1,2.88-14.68A34,34,0,0,1,92,20.25a36.31,36.31,0,0,1,12.3-7.49,44.12,44.12,0,0,1,15.43-2.63,43.47,43.47,0,0,1,18.1,3.57,33.54,33.54,0,0,1,13,10.32L136.05,37.21a23.9,23.9,0,0,0-6.79-6,16.58,16.58,0,0,0-8.38-2.13,17.62,17.62,0,0,0-6.65,1.19,14,14,0,0,0-5.11,3.47,16,16,0,0,0-3.32,5.51,20.64,20.64,0,0,0-1.19,7.18,20.75,20.75,0,0,0,1.19,7.2,16.06,16.06,0,0,0,3.32,5.5,14,14,0,0,0,5.11,3.47,17.62,17.62,0,0,0,6.65,1.19,16.58,16.58,0,0,0,8.38-2.13,23.9,23.9,0,0,0,6.79-6l14.78,13.2a34.43,34.43,0,0,1-13,10.26A43,43,0,0,1,119.69,82.74Z" transform="translate(-5.62 -10.13)"/><path class="cls-3" d="M166.12,81.15V29.78l-20.33.09V11.72h64.08V29.6l-20.34.08V81.15Z" transform="translate(-5.62 -10.13)"/><path class="cls-4" d="M221.77,81.15V19.85l10.15,9.65-22,.09V11.72h35.31V81.15Z" transform="translate(-5.62 -10.13)"/><path class="cls-4" d="M275,82.74A44.42,44.42,0,0,1,258.81,80a25.32,25.32,0,0,1-11-7.74,18.31,18.31,0,0,1-4-11.75A17.14,17.14,0,0,1,248,49a25.31,25.31,0,0,1,11.11-7.24,52.66,52.66,0,0,1,31.94,0A25.37,25.37,0,0,1,302.11,49a17.14,17.14,0,0,1,4.07,11.51,18.37,18.37,0,0,1-4,11.75,25.32,25.32,0,0,1-11,7.74A44.46,44.46,0,0,1,275,82.74Zm0-32.14a43.22,43.22,0,0,1-14.63-2.33,23.64,23.64,0,0,1-10.27-6.74,15.91,15.91,0,0,1-3.77-10.67,17.12,17.12,0,0,1,3.67-11,23.93,23.93,0,0,1,10.12-7.19,44.2,44.2,0,0,1,29.76,0A23.89,23.89,0,0,1,300,19.9a17.07,17.07,0,0,1,3.68,11,15.91,15.91,0,0,1-3.77,10.67,23.7,23.7,0,0,1-10.22,6.74A43.11,43.11,0,0,1,275,50.6ZM275,67a7.86,7.86,0,0,0,5.5-1.94,6.78,6.78,0,0,0,2.14-5.3,6.82,6.82,0,0,0-2.14-5.31,8.82,8.82,0,0,0-11,0,6.81,6.81,0,0,0-2.13,5.31,6.78,6.78,0,0,0,2.13,5.3A7.89,7.89,0,0,0,275,67Zm0-29.17a5.39,5.39,0,0,0,4-1.58,5.93,5.93,0,0,0,1.59-4.36A5.92,5.92,0,0,0,279,27.44a5.89,5.89,0,0,0-7.94,0,5.88,5.88,0,0,0-1.59,4.42,5.89,5.89,0,0,0,1.59,4.36A5.37,5.37,0,0,0,275,37.8Z" transform="translate(-5.62 -10.13)"/></svg>