<svg id="Layer_1" data-name="Layer 1" xmlns="http://www.w3.org/2000/svg" xmlns:xlink="http://www.w3.org/1999/xlink" viewBox="0 0 469.61 469.61"><defs><style>.cls-1{fill:#8c2e1b;}.cls-2{fill:#ff4200;}.cls-3{fill:#47190d;}.cls-4{clip-path:url(#clip-path);}.cls-5{fill:#1d1d1b;}.cls-6{fill:none;stroke:#1d1d1b;stroke-miterlimit:10;stroke-width:3px;}</style><clipPath id="clip-path"><path class="cls-1" d="M229.37,194.36q-.75,11.19-1.49,22.37l-74.37-29.21,18.3-13.11Z"/></clipPath></defs><path class="cls-2" d="M14.76,30.07l94.5,15,90.4,14.38-.38,42.81q-.33,20.13-.65,40.26L166.72,132.4l-19.33-6.13,6.12,61.25,74.37,29.21L238,65.56,435.32,96.94,399.56,206.32l-97.24-30.87L291,241.54l86,33.77-28.08,85.86-72-36.85-22.19,130L213.92,426q4.31-64.72,8.63-129.45l-61.29-31.36q6.66,66.74,13.33,133.47l-36.43-25.33Q108.3,238.85,78.44,104.38L29.05,88.6Z"/><path class="cls-3" d="M198.63,142.54l20.87-15.38q2.69-43.5,5.38-87-12.62,9.64-25.22,19.3Z"/><path class="cls-1" d="M14.76,30.07,31.58,17.84l193.3,22.33q-12.62,9.64-25.22,19.3Z"/><path class="cls-3" d="M170.4,133.57l1.41,40.84-18.3,13.11-6.12-61.25Z"/><path class="cls-1" d="M229.37,194.36q-.75,11.19-1.49,22.37l-74.37-29.21,18.3-13.11Z"/><g class="cls-4"><path class="cls-3" d="M209.62,187.52l-18.18,14.9-37.93-14.9,17.61-13.66Z"/></g><path class="cls-3" d="M399.88,205.85q10.23-7.48,20.47-15,19.95-57,39.92-113.9l-24.95,20Q417.59,151.39,399.88,205.85Z"/><path class="cls-1" d="M238,65.56,435.32,96.94l24.95-20-202-27.39Z"/><path class="cls-3" d="M291,241.54l23.31-17.72q4.56-20.82,9.13-41.65l-21.16-6.72Z"/><path class="cls-3" d="M408.44,256.44,377,275.31l-86-33.77,23.31-17.72Z"/><path class="cls-3" d="M348.92,361.17l24.81-13.3,34.71-91.43L377,275.31Z"/><path class="cls-3" d="M174.59,398.62q2.37-3.06,4.76-6.1-2.08-60.12-4.16-120.24l-13.93-7.13Z"/><path class="cls-3" d="M254.72,454.32l10.38-5.61q12.84-58.63,25.69-117.29l-13.88-7.1Z"/><path class="cls-5" d="M255.48,456.14l-42.66-29.65,8.63-129.35L162.5,267l13.37,133.82-38.65-26.86L77.54,105.2,28.17,89.42,13.35,28.77l187.37,29.8-.39,43.72L199.66,144l-51-16.2,5.89,59,72.42,28.45L237,64.33,436.71,96.09,400.23,207.64l-97.07-30.81-10.93,64,86.08,33.82-28.76,88-71.84-36.76ZM215,425.43,254,452.5l22.16-129.77,72.19,36.94,27.38-83.74-85.83-33.72,11.63-68.13L398.88,205l35.05-107.2-195-31L228.83,218.24l-76.31-30-6.34-63.48L197.6,141.1l.62-38.84.37-41.89-182.43-29L29.94,87.77l49.4,15.79,59.76,269.1,34.21,23.78L160,263.32l63.64,32.57Z"/><polygon class="cls-5" points="349.55 362.7 348.79 361.04 372.88 347.12 407.07 257.08 313.12 224.51 322.69 180.81 399.88 205.31 419.45 190.23 458.85 77.86 258.54 50.7 239.24 65.29 230.33 195.81 170.78 175.17 169.29 132.11 199.68 141.76 218.48 126.6 223.76 41.1 31.87 18.93 14.82 30.3 13.35 28.77 31.3 16.74 31.7 16.79 226 39.23 220.53 127.72 199.69 143.98 171.51 135.04 172.84 173.65 228.41 192.91 236.99 64.24 257.94 48.49 258.38 48.55 461.7 76.11 421.24 191.54 400.1 207.6 324.26 183.53 315.59 223.13 409.82 255.8 374.58 348.61 349.55 362.7"/><path class="cls-5" d="M175.85,400.8,160,263.32l16.22,8.3,4.19,121.24ZM162.5,267l13,130.11,2.79-4.91-4.12-119.23Z"/><line class="cls-6" x1="171.78" y1="173.35" x2="153.51" y2="187.52"/><line class="cls-6" x1="291.04" y1="241.54" x2="314.35" y2="223.82"/><polygon class="cls-5" points="255.4 456.12 254.72 454.32 264.17 448.01 289.75 331.2 291.82 331.65 266.03 449.41 255.4 456.12"/><line class="cls-6" x1="377" y1="275.31" x2="408.44" y2="256.44"/><line class="cls-6" x1="460.27" y1="76.99" x2="435.32" y2="96.94"/><line class="cls-6" x1="199.66" y1="59.47" x2="224.88" y2="40.17"/></svg>