<svg id="Layer_1" data-name="Layer 1" xmlns="http://www.w3.org/2000/svg" xmlns:xlink="http://www.w3.org/1999/xlink" viewBox="0 0 1720.9 1366.24"><defs><style>.cls-1{fill:#8c2e1b;}.cls-2{opacity:0.49;}.cls-3{fill:#ff4200;}.cls-4{fill:#47190d;}.cls-5{clip-path:url(#clip-path);}.cls-6{fill:#1d1d1b;}</style><clipPath id="clip-path" transform="translate(-240.05 -363.6)"><path class="cls-1" d="M912.17,915.22q-2.31,34.74-4.63,69.46L676.59,894l56.84-40.7Z"/></clipPath></defs><g class="cls-2"><path d="M1096.84,1086.66l226.93,61.39L1521,1201.41l-41.89,23-45.91,24.7-72.56-23.35-44.6-14.35-77.17,45.34,182.41,64.33,178.07-98.52L1961,1320.42,1861,1386.8l-201-64.67-87.48,52.32,200.57,70.73-155.67,103.39-195.91-83.79L993.06,1721.06l-129.95-91.15,411.82-227.82L1111,1332l-366,215-103.78-72.8,511.56-315.32-121-39.05Z" transform="translate(-240.05 -363.6)"/></g><path class="cls-3" d="M245.69,405l293.48,46.67L819.9,496.3q-.58,66.48-1.18,133l-2,125L717.6,722.81l-60-19,19,190.2,230.95,90.72,31.32-469.46,612.89,97.46L1440.69,952.36l-302-95.86q-17.51,102.62-35,205.24l267,104.86q-43.61,133.34-87.19,266.66l-223.65-114.43-68.92,403.71-126.71-88.08,26.82-402-190.34-97.4q20.69,207.26,41.38,414.5l-113.12-78.64q-92.74-417.57-185.48-835.13l-153.36-49Z" transform="translate(-240.05 -363.6)"/><path class="cls-4" d="M816.71,754.28l64.82-47.75q8.34-135.09,16.7-270.16L819.9,496.3Z" transform="translate(-240.05 -363.6)"/><path class="cls-1" d="M245.69,405l52.25-38,600.29,69.36L819.9,496.3Z" transform="translate(-240.05 -363.6)"/><path class="cls-4" d="M729.05,726.45l4.38,126.81L676.59,894l-19-190.2Z" transform="translate(-240.05 -363.6)"/><path class="cls-1" d="M912.17,915.22q-2.31,34.74-4.63,69.46L676.59,894l56.84-40.7Z" transform="translate(-240.05 -363.6)"/><g class="cls-5"><path class="cls-4" d="M850.84,894l-56.46,46.27L676.59,894l54.67-42.4Z" transform="translate(-240.05 -363.6)"/></g><path class="cls-4" d="M1441.69,950.88l63.57-46.44,124-353.73-77.5,62Q1496.73,781.78,1441.69,950.88Z" transform="translate(-240.05 -363.6)"/><path class="cls-1" d="M938.86,515.22l612.89,97.46,77.5-62-627.43-85.06Z" transform="translate(-240.05 -363.6)"/><path class="cls-4" d="M1103.7,1061.74l72.39-55q14.17-64.68,28.33-129.36l-65.69-20.85Z" transform="translate(-240.05 -363.6)"/><path class="cls-4" d="M1468.3,1108l-97.65,58.59-267-104.86,72.39-55Z" transform="translate(-240.05 -363.6)"/><path class="cls-6" d="M1283.46,1433.26l77-41.33L1468.3,1108l-97.65,58.59Z" transform="translate(-240.05 -363.6)"/><path class="cls-4" d="M742,1549.55l14.78-19q-6.45-186.7-12.89-373.41l-43.27-22.14Z" transform="translate(-240.05 -363.6)"/><path class="cls-4" d="M990.89,1722.54l32.24-17.43,79.77-364.23-43.09-22.05Z" transform="translate(-240.05 -363.6)"/><path class="cls-4" d="M711.77,1532.21" transform="translate(-240.05 -363.6)"/><path class="cls-6" d="M994,1729.84l-134.17-93.27L886.58,1235l-180.92-92.58,41.52,415.91-122-84.84-.36-1.62L439.83,639.08l-153.31-49L240.05,399.8l584.13,92.88L823,629.29l-2.1,130.76L662.46,709.76,680.55,891l223.14,87.65,31.24-468.32,622.41,99L1443.42,957.68,1142.1,862l-33.63,197,267.46,105.06-90,275.2L1063,1325.24Zm-125.38-97.5,119.25,82.9,68.77-402.83L1281,1427.22l84.4-258.13-266.44-104.66L1135.37,851,1438,947l108.2-330.95-603.38-96-31.4,470.62L672.62,897,652.73,697.76,812.56,748.5l1.91-119.32,1.15-129.26L251.33,410.19l42.31,173.25,153.42,49,.53,2.38L632.7,1468.37l104.2,72.43-41.24-413.07,199.77,102.21Z" transform="translate(-240.05 -363.6)"/><polygon class="cls-6" points="1045.35 1074.4 1042.99 1069.25 1117.8 1026.02 1223.98 746.4 932.21 645.26 961.93 509.53 1201.66 585.63 1262.44 538.79 1384.77 189.81 762.71 105.49 702.77 150.78 675.11 556.13 490.17 492.02 485.56 358.31 579.93 388.26 638.29 341.19 654.71 75.67 58.79 6.82 5.82 42.13 1.27 37.38 56.99 0 58.27 0.15 661.64 69.86 644.66 344.66 579.96 395.17 492.44 367.38 496.58 487.29 669.13 547.11 695.79 147.52 760.83 98.61 762.21 98.79 1393.63 184.39 1267.97 542.87 1202.34 592.74 966.81 517.97 939.87 640.96 1232.52 742.41 1123.07 1030.64 1045.35 1074.4"/><path class="cls-6" d="M746,1556.31l-49.18-426.92,50.35,25.76,13,376.53Zm-41.45-415.59,40.34,404,8.64-15.25-12.79-370.28Z" transform="translate(-240.05 -363.6)"/><rect class="cls-6" x="669.05" y="868.94" width="71.79" height="6.05" transform="translate(-626.56 251.45) rotate(-37.8)"/><rect class="cls-6" x="1094.43" y="1031.2" width="90.93" height="6.05" transform="translate(-633.51 537.13) rotate(-37.24)"/><polygon class="cls-6" points="752.97 1364.52 750.84 1358.94 780.19 1339.34 859.65 976.57 866.06 977.98 785.96 1343.68 752.97 1364.52"/><rect class="cls-6" x="1362.53" y="1134.28" width="113.88" height="6.05" transform="translate(-622.88 528.59) rotate(-30.96)"/><rect class="cls-6" x="1540.89" y="578.66" width="99.23" height="6.05" transform="translate(-255.03 757.08) rotate(-38.65)"/><rect class="cls-6" x="809.75" y="463.31" width="98.62" height="6.05" transform="translate(-346.63 254.4) rotate(-37.42)"/></svg>